<?xml version="1.0" encoding="UTF-8" standalone="no"?><!-- Generator: Gravit.io --><svg xmlns="http://www.w3.org/2000/svg" xmlns:xlink="http://www.w3.org/1999/xlink" style="isolation:isolate" viewBox="0 0 500 800" width="500pt" height="800pt"><defs><clipPath id="_clipPath_VUdfaKXFE6DKRdppFg7cWOuEbWhLG248"><rect width="500" height="800"/></clipPath></defs><g clip-path="url(#_clipPath_VUdfaKXFE6DKRdppFg7cWOuEbWhLG248)"><path d="M 100 25 L 400 25 C 441.394 25 475 58.606 475 100 L 475 700 C 475 741.394 441.394 775 400 775 L 100 775 C 58.606 775 25 741.394 25 700 L 25 100 C 25 58.606 58.606 25 100 25 Z" style="fill:none;stroke:#747474;stroke-width:15;stroke-linecap:square;stroke-miterlimit:2;"/><path d=" M 83.716 687.44 L 83.716 735.604 L 76.421 735.604 L 76.421 687.44 L 83.716 687.44 L 83.716 687.44 Z  M 75.806 674.388 L 75.806 674.388 L 75.806 674.388 Q 75.806 671.883 77.036 670.719 L 77.036 670.719 L 77.036 670.719 Q 78.267 669.554 80.113 669.554 L 80.113 669.554 L 80.113 669.554 Q 81.87 669.554 83.145 670.741 L 83.145 670.741 L 83.145 670.741 Q 84.419 671.927 84.419 674.388 L 84.419 674.388 L 84.419 674.388 Q 84.419 676.849 83.145 678.058 L 83.145 678.058 L 83.145 678.058 Q 81.87 679.266 80.113 679.266 L 80.113 679.266 L 80.113 679.266 Q 78.267 679.266 77.036 678.058 L 77.036 678.058 L 77.036 678.058 Q 75.806 676.849 75.806 674.388 Z  M 139.439 735.604 L 132.144 735.604 L 132.144 704.447 L 132.144 704.447 Q 132.144 698.558 129.463 695.658 L 129.463 695.658 L 129.463 695.658 Q 126.783 692.757 121.07 692.757 L 121.07 692.757 L 121.07 692.757 Q 113.511 692.757 109.995 696.844 L 109.995 696.844 L 109.995 696.844 Q 106.48 700.931 106.48 710.335 L 106.48 710.335 L 106.48 735.604 L 99.185 735.604 L 99.185 687.44 L 105.118 687.44 L 106.304 694.032 L 106.656 694.032 L 106.656 694.032 Q 108.897 690.472 112.94 688.516 L 112.94 688.516 L 112.94 688.516 Q 116.983 686.561 121.949 686.561 L 121.949 686.561 L 121.949 686.561 Q 130.65 686.561 135.044 690.758 L 135.044 690.758 L 135.044 690.758 Q 139.439 694.954 139.439 704.183 L 139.439 704.183 L 139.439 735.604 L 139.439 735.604 Z  M 176.133 687.44 L 176.133 693.109 L 163.872 693.109 L 163.872 735.604 L 156.577 735.604 L 156.577 693.109 L 147.964 693.109 L 147.964 689.813 L 156.577 687.176 L 156.577 684.495 L 156.577 684.495 Q 156.577 666.742 172.09 666.742 L 172.09 666.742 L 172.09 666.742 Q 175.913 666.742 181.055 668.28 L 181.055 668.28 L 179.165 674.124 L 179.165 674.124 Q 174.947 672.762 171.958 672.762 L 171.958 672.762 L 171.958 672.762 Q 167.827 672.762 165.85 675.509 L 165.85 675.509 L 165.85 675.509 Q 163.872 678.255 163.872 684.32 L 163.872 684.32 L 163.872 687.44 L 176.133 687.44 L 176.133 687.44 Z  M 226.494 711.478 L 226.494 711.478 L 226.494 711.478 Q 226.494 723.255 220.562 729.869 L 220.562 729.869 L 220.562 729.869 Q 214.629 736.483 204.17 736.483 L 204.17 736.483 L 204.17 736.483 Q 197.71 736.483 192.701 733.451 L 192.701 733.451 L 192.701 733.451 Q 187.691 730.418 184.966 724.749 L 184.966 724.749 L 184.966 724.749 Q 182.242 719.08 182.242 711.478 L 182.242 711.478 L 182.242 711.478 Q 182.242 699.701 188.13 693.131 L 188.13 693.131 L 188.13 693.131 Q 194.019 686.561 204.478 686.561 L 204.478 686.561 L 204.478 686.561 Q 214.585 686.561 220.54 693.285 L 220.54 693.285 L 220.54 693.285 Q 226.494 700.008 226.494 711.478 Z  M 189.8 711.478 L 189.8 711.478 L 189.8 711.478 Q 189.8 720.706 193.492 725.54 L 193.492 725.54 L 193.492 725.54 Q 197.183 730.374 204.346 730.374 L 204.346 730.374 L 204.346 730.374 Q 211.509 730.374 215.223 725.562 L 215.223 725.562 L 215.223 725.562 Q 218.936 720.75 218.936 711.478 L 218.936 711.478 L 218.936 711.478 Q 218.936 702.293 215.223 697.525 L 215.223 697.525 L 215.223 697.525 Q 211.509 692.757 204.258 692.757 L 204.258 692.757 L 204.258 692.757 Q 197.095 692.757 193.448 697.459 L 193.448 697.459 L 193.448 697.459 Q 189.8 702.162 189.8 711.478 Z  M 249.917 717.894 L 244.248 717.894 L 244.248 715.521 L 244.248 715.521 Q 244.248 710.379 245.83 707.061 L 245.83 707.061 L 245.83 707.061 Q 247.412 703.744 251.719 700.052 L 251.719 700.052 L 251.719 700.052 Q 257.696 694.998 259.256 692.45 L 259.256 692.45 L 259.256 692.45 Q 260.816 689.901 260.816 686.297 L 260.816 686.297 L 260.816 686.297 Q 260.816 681.815 257.937 679.376 L 257.937 679.376 L 257.937 679.376 Q 255.059 676.937 249.654 676.937 L 249.654 676.937 L 249.654 676.937 Q 246.182 676.937 242.886 677.75 L 242.886 677.75 L 242.886 677.75 Q 239.59 678.563 235.327 680.716 L 235.327 680.716 L 232.735 674.784 L 232.735 674.784 Q 241.04 670.433 250.093 670.433 L 250.093 670.433 L 250.093 670.433 Q 258.487 670.433 263.145 674.564 L 263.145 674.564 L 263.145 674.564 Q 267.803 678.695 267.803 686.209 L 267.803 686.209 L 267.803 686.209 Q 267.803 689.417 266.946 691.856 L 266.946 691.856 L 266.946 691.856 Q 266.089 694.295 264.419 696.471 L 264.419 696.471 L 264.419 696.471 Q 262.749 698.646 257.212 703.48 L 257.212 703.48 L 257.212 703.48 Q 252.774 707.259 251.346 709.764 L 251.346 709.764 L 251.346 709.764 Q 249.917 712.269 249.917 716.444 L 249.917 716.444 L 249.917 717.894 L 249.917 717.894 Z  M 242.095 730.946 L 242.095 730.946 L 242.095 730.946 Q 242.095 724.969 247.369 724.969 L 247.369 724.969 L 247.369 724.969 Q 249.917 724.969 251.302 726.507 L 251.302 726.507 L 251.302 726.507 Q 252.686 728.045 252.686 730.946 L 252.686 730.946 L 252.686 730.946 Q 252.686 733.758 251.28 735.318 L 251.28 735.318 L 251.28 735.318 Q 249.873 736.878 247.369 736.878 L 247.369 736.878 L 247.369 736.878 Q 245.083 736.878 243.589 735.494 L 243.589 735.494 L 243.589 735.494 Q 242.095 734.11 242.095 730.946 Z  M 290.083 613.04 L 282.788 613.04 L 282.788 581.707 L 282.788 581.707 Q 282.788 575.951 280.327 573.072 L 280.327 573.072 L 280.327 573.072 Q 277.867 570.194 272.681 570.194 L 272.681 570.194 L 272.681 570.194 Q 265.869 570.194 262.618 574.105 L 262.618 574.105 L 262.618 574.105 Q 259.366 578.016 259.366 586.146 L 259.366 586.146 L 259.366 613.04 L 252.071 613.04 L 252.071 581.707 L 252.071 581.707 Q 252.071 575.951 249.61 573.072 L 249.61 573.072 L 249.61 573.072 Q 247.149 570.194 241.919 570.194 L 241.919 570.194 L 241.919 570.194 Q 235.064 570.194 231.878 574.303 L 231.878 574.303 L 231.878 574.303 Q 228.692 578.412 228.692 587.772 L 228.692 587.772 L 228.692 613.04 L 221.397 613.04 L 221.397 564.876 L 227.329 564.876 L 228.516 571.468 L 228.868 571.468 L 228.868 571.468 Q 230.933 567.953 234.69 565.975 L 234.69 565.975 L 234.69 565.975 Q 238.448 563.997 243.106 563.997 L 243.106 563.997 L 243.106 563.997 Q 254.4 563.997 257.871 572.171 L 257.871 572.171 L 258.223 572.171 L 258.223 572.171 Q 260.376 568.392 264.463 566.195 L 264.463 566.195 L 264.463 566.195 Q 268.55 563.997 273.78 563.997 L 273.78 563.997 L 273.78 563.997 Q 281.953 563.997 286.018 568.194 L 286.018 568.194 L 286.018 568.194 Q 290.083 572.391 290.083 581.62 L 290.083 581.62 L 290.083 613.04 L 290.083 613.04 Z  M 346.685 588.914 L 346.685 588.914 L 346.685 588.914 Q 346.685 600.692 340.752 607.306 L 340.752 607.306 L 340.752 607.306 Q 334.82 613.919 324.361 613.919 L 324.361 613.919 L 324.361 613.919 Q 317.901 613.919 312.891 610.887 L 312.891 610.887 L 312.891 610.887 Q 307.881 607.855 305.157 602.186 L 305.157 602.186 L 305.157 602.186 Q 302.432 596.517 302.432 588.914 L 302.432 588.914 L 302.432 588.914 Q 302.432 577.137 308.321 570.567 L 308.321 570.567 L 308.321 570.567 Q 314.209 563.997 324.668 563.997 L 324.668 563.997 L 324.668 563.997 Q 334.776 563.997 340.73 570.721 L 340.73 570.721 L 340.73 570.721 Q 346.685 577.445 346.685 588.914 Z  M 309.991 588.914 L 309.991 588.914 L 309.991 588.914 Q 309.991 598.143 313.682 602.977 L 313.682 602.977 L 313.682 602.977 Q 317.373 607.811 324.536 607.811 L 324.536 607.811 L 324.536 607.811 Q 331.7 607.811 335.413 602.999 L 335.413 602.999 L 335.413 602.999 Q 339.126 598.187 339.126 588.914 L 339.126 588.914 L 339.126 588.914 Q 339.126 579.73 335.413 574.962 L 335.413 574.962 L 335.413 574.962 Q 331.7 570.194 324.449 570.194 L 324.449 570.194 L 324.449 570.194 Q 317.286 570.194 313.638 574.896 L 313.638 574.896 L 313.638 574.896 Q 309.991 579.598 309.991 588.914 Z  M 381.446 563.997 L 381.446 563.997 L 381.446 563.997 Q 384.654 563.997 387.202 564.525 L 387.202 564.525 L 386.192 571.292 L 386.192 571.292 Q 383.203 570.633 380.918 570.633 L 380.918 570.633 L 380.918 570.633 Q 375.074 570.633 370.921 575.379 L 370.921 575.379 L 370.921 575.379 Q 366.768 580.125 366.768 587.201 L 366.768 587.201 L 366.768 613.04 L 359.473 613.04 L 359.473 564.876 L 365.494 564.876 L 366.328 573.797 L 366.68 573.797 L 366.68 573.797 Q 369.361 569.095 373.14 566.546 L 373.14 566.546 L 373.14 566.546 Q 376.919 563.997 381.446 563.997 Z  M 416.558 613.919 L 416.558 613.919 L 416.558 613.919 Q 405.879 613.919 399.705 607.415 L 399.705 607.415 L 399.705 607.415 Q 393.531 600.912 393.531 589.354 L 393.531 589.354 L 393.531 589.354 Q 393.531 577.708 399.265 570.853 L 399.265 570.853 L 399.265 570.853 Q 405 563.997 414.668 563.997 L 414.668 563.997 L 414.668 563.997 Q 423.721 563.997 428.994 569.952 L 428.994 569.952 L 428.994 569.952 Q 434.268 575.907 434.268 585.662 L 434.268 585.662 L 434.268 590.277 L 401.089 590.277 L 401.089 590.277 Q 401.309 598.758 405.374 603.153 L 405.374 603.153 L 405.374 603.153 Q 409.439 607.547 416.822 607.547 L 416.822 607.547 L 416.822 607.547 Q 424.6 607.547 432.202 604.295 L 432.202 604.295 L 432.202 610.799 L 432.202 610.799 Q 428.335 612.469 424.886 613.194 L 424.886 613.194 L 424.886 613.194 Q 421.436 613.919 416.558 613.919 Z  M 414.58 570.106 L 414.58 570.106 L 414.58 570.106 Q 408.78 570.106 405.33 573.885 L 405.33 573.885 L 405.33 573.885 Q 401.88 577.664 401.265 584.344 L 401.265 584.344 L 426.446 584.344 L 426.446 584.344 Q 426.446 577.445 423.369 573.775 L 423.369 573.775 L 423.369 573.775 Q 420.293 570.106 414.58 570.106 Z  M 98.13 564.876 L 98.13 570.545 L 85.869 570.545 L 85.869 613.04 L 78.575 613.04 L 78.575 570.545 L 69.961 570.545 L 69.961 567.249 L 78.575 564.613 L 78.575 561.932 L 78.575 561.932 Q 78.575 544.178 94.087 544.178 L 94.087 544.178 L 94.087 544.178 Q 97.911 544.178 103.052 545.716 L 103.052 545.716 L 101.162 551.561 L 101.162 551.561 Q 96.944 550.199 93.955 550.199 L 93.955 550.199 L 93.955 550.199 Q 89.825 550.199 87.847 552.945 L 87.847 552.945 L 87.847 552.945 Q 85.869 555.692 85.869 561.756 L 85.869 561.756 L 85.869 564.876 L 98.13 564.876 L 98.13 564.876 Z  M 148.492 588.914 L 148.492 588.914 L 148.492 588.914 Q 148.492 600.692 142.559 607.306 L 142.559 607.306 L 142.559 607.306 Q 136.626 613.919 126.167 613.919 L 126.167 613.919 L 126.167 613.919 Q 119.707 613.919 114.698 610.887 L 114.698 610.887 L 114.698 610.887 Q 109.688 607.855 106.963 602.186 L 106.963 602.186 L 106.963 602.186 Q 104.239 596.517 104.239 588.914 L 104.239 588.914 L 104.239 588.914 Q 104.239 577.137 110.127 570.567 L 110.127 570.567 L 110.127 570.567 Q 116.016 563.997 126.475 563.997 L 126.475 563.997 L 126.475 563.997 Q 136.582 563.997 142.537 570.721 L 142.537 570.721 L 142.537 570.721 Q 148.492 577.445 148.492 588.914 Z  M 111.797 588.914 L 111.797 588.914 L 111.797 588.914 Q 111.797 598.143 115.489 602.977 L 115.489 602.977 L 115.489 602.977 Q 119.18 607.811 126.343 607.811 L 126.343 607.811 L 126.343 607.811 Q 133.506 607.811 137.22 602.999 L 137.22 602.999 L 137.22 602.999 Q 140.933 598.187 140.933 588.914 L 140.933 588.914 L 140.933 588.914 Q 140.933 579.73 137.22 574.962 L 137.22 574.962 L 137.22 574.962 Q 133.506 570.194 126.255 570.194 L 126.255 570.194 L 126.255 570.194 Q 119.092 570.194 115.445 574.896 L 115.445 574.896 L 115.445 574.896 Q 111.797 579.598 111.797 588.914 Z  M 183.252 563.997 L 183.252 563.997 L 183.252 563.997 Q 186.46 563.997 189.009 564.525 L 189.009 564.525 L 187.998 571.292 L 187.998 571.292 Q 185.01 570.633 182.725 570.633 L 182.725 570.633 L 182.725 570.633 Q 176.88 570.633 172.727 575.379 L 172.727 575.379 L 172.727 575.379 Q 168.575 580.125 168.575 587.201 L 168.575 587.201 L 168.575 613.04 L 161.28 613.04 L 161.28 564.876 L 167.3 564.876 L 168.135 573.797 L 168.487 573.797 L 168.487 573.797 Q 171.167 569.095 174.947 566.546 L 174.947 566.546 L 174.947 566.546 Q 178.726 563.997 183.252 563.997 Z  M 113.335 490.477 L 77.52 490.477 L 77.52 426.229 L 84.991 426.229 L 84.991 483.709 L 113.335 483.709 L 113.335 490.477 L 113.335 490.477 Z  M 164.707 466.351 L 164.707 466.351 L 164.707 466.351 Q 164.707 478.128 158.775 484.742 L 158.775 484.742 L 158.775 484.742 Q 152.842 491.356 142.383 491.356 L 142.383 491.356 L 142.383 491.356 Q 135.923 491.356 130.913 488.324 L 130.913 488.324 L 130.913 488.324 Q 125.904 485.291 123.179 479.622 L 123.179 479.622 L 123.179 479.622 Q 120.454 473.954 120.454 466.351 L 120.454 466.351 L 120.454 466.351 Q 120.454 454.574 126.343 448.004 L 126.343 448.004 L 126.343 448.004 Q 132.232 441.434 142.691 441.434 L 142.691 441.434 L 142.691 441.434 Q 152.798 441.434 158.753 448.158 L 158.753 448.158 L 158.753 448.158 Q 164.707 454.881 164.707 466.351 Z  M 128.013 466.351 L 128.013 466.351 L 128.013 466.351 Q 128.013 475.579 131.704 480.413 L 131.704 480.413 L 131.704 480.413 Q 135.396 485.247 142.559 485.247 L 142.559 485.247 L 142.559 485.247 Q 149.722 485.247 153.435 480.435 L 153.435 480.435 L 153.435 480.435 Q 157.149 475.623 157.149 466.351 L 157.149 466.351 L 157.149 466.351 Q 157.149 457.166 153.435 452.398 L 153.435 452.398 L 153.435 452.398 Q 149.722 447.63 142.471 447.63 L 142.471 447.63 L 142.471 447.63 Q 135.308 447.63 131.661 452.332 L 131.661 452.332 L 131.661 452.332 Q 128.013 457.035 128.013 466.351 Z  M 219.068 466.351 L 219.068 466.351 L 219.068 466.351 Q 219.068 478.128 213.135 484.742 L 213.135 484.742 L 213.135 484.742 Q 207.202 491.356 196.744 491.356 L 196.744 491.356 L 196.744 491.356 Q 190.284 491.356 185.274 488.324 L 185.274 488.324 L 185.274 488.324 Q 180.264 485.291 177.539 479.622 L 177.539 479.622 L 177.539 479.622 Q 174.815 473.954 174.815 466.351 L 174.815 466.351 L 174.815 466.351 Q 174.815 454.574 180.703 448.004 L 180.703 448.004 L 180.703 448.004 Q 186.592 441.434 197.051 441.434 L 197.051 441.434 L 197.051 441.434 Q 207.159 441.434 213.113 448.158 L 213.113 448.158 L 213.113 448.158 Q 219.068 454.881 219.068 466.351 Z  M 182.373 466.351 L 182.373 466.351 L 182.373 466.351 Q 182.373 475.579 186.065 480.413 L 186.065 480.413 L 186.065 480.413 Q 189.756 485.247 196.919 485.247 L 196.919 485.247 L 196.919 485.247 Q 204.082 485.247 207.796 480.435 L 207.796 480.435 L 207.796 480.435 Q 211.509 475.623 211.509 466.351 L 211.509 466.351 L 211.509 466.351 Q 211.509 457.166 207.796 452.398 L 207.796 452.398 L 207.796 452.398 Q 204.082 447.63 196.831 447.63 L 196.831 447.63 L 196.831 447.63 Q 189.668 447.63 186.021 452.332 L 186.021 452.332 L 186.021 452.332 Q 182.373 457.035 182.373 466.351 Z  M 238.711 465.824 L 239.063 465.824 L 239.063 465.824 Q 240.952 463.143 244.82 458.792 L 244.82 458.792 L 260.376 442.313 L 269.034 442.313 L 249.522 462.835 L 270.396 490.477 L 261.563 490.477 L 244.556 467.713 L 239.063 472.459 L 239.063 490.477 L 231.856 490.477 L 231.856 422.098 L 239.063 422.098 L 239.063 458.353 L 239.063 458.353 Q 239.063 460.77 238.711 465.824 L 238.711 465.824 L 238.711 465.824 Z  M 286.392 442.313 L 286.392 490.477 L 279.097 490.477 L 279.097 442.313 L 286.392 442.313 L 286.392 442.313 Z  M 278.482 429.261 L 278.482 429.261 L 278.482 429.261 Q 278.482 426.756 279.712 425.592 L 279.712 425.592 L 279.712 425.592 Q 280.943 424.427 282.788 424.427 L 282.788 424.427 L 282.788 424.427 Q 284.546 424.427 285.821 425.614 L 285.821 425.614 L 285.821 425.614 Q 287.095 426.8 287.095 429.261 L 287.095 429.261 L 287.095 429.261 Q 287.095 431.722 285.821 432.931 L 285.821 432.931 L 285.821 432.931 Q 284.546 434.139 282.788 434.139 L 282.788 434.139 L 282.788 434.139 Q 280.943 434.139 279.712 432.931 L 279.712 432.931 L 279.712 432.931 Q 278.482 431.722 278.482 429.261 Z  M 342.115 490.477 L 334.82 490.477 L 334.82 459.32 L 334.82 459.32 Q 334.82 453.431 332.139 450.531 L 332.139 450.531 L 332.139 450.531 Q 329.458 447.63 323.745 447.63 L 323.745 447.63 L 323.745 447.63 Q 316.187 447.63 312.671 451.717 L 312.671 451.717 L 312.671 451.717 Q 309.156 455.804 309.156 465.208 L 309.156 465.208 L 309.156 490.477 L 301.861 490.477 L 301.861 442.313 L 307.793 442.313 L 308.98 448.905 L 309.331 448.905 L 309.331 448.905 Q 311.573 445.345 315.616 443.39 L 315.616 443.39 L 315.616 443.39 Q 319.659 441.434 324.624 441.434 L 324.624 441.434 L 324.624 441.434 Q 333.326 441.434 337.72 445.631 L 337.72 445.631 L 337.72 445.631 Q 342.115 449.828 342.115 459.056 L 342.115 459.056 L 342.115 490.477 L 342.115 490.477 Z  M 379.864 442.313 L 396.519 442.313 L 396.519 446.927 L 387.598 447.982 L 387.598 447.982 Q 388.828 449.52 389.795 452.003 L 389.795 452.003 L 389.795 452.003 Q 390.762 454.486 390.762 457.606 L 390.762 457.606 L 390.762 457.606 Q 390.762 464.681 385.928 468.9 L 385.928 468.9 L 385.928 468.9 Q 381.094 473.119 372.657 473.119 L 372.657 473.119 L 372.657 473.119 Q 370.503 473.119 368.614 472.767 L 368.614 472.767 L 368.614 472.767 Q 363.955 475.228 363.955 478.963 L 363.955 478.963 L 363.955 478.963 Q 363.955 480.941 365.581 481.886 L 365.581 481.886 L 365.581 481.886 Q 367.207 482.83 371.162 482.83 L 371.162 482.83 L 379.688 482.83 L 379.688 482.83 Q 387.51 482.83 391.707 486.126 L 391.707 486.126 L 391.707 486.126 Q 395.904 489.422 395.904 495.706 L 395.904 495.706 L 395.904 495.706 Q 395.904 503.704 389.488 507.901 L 389.488 507.901 L 389.488 507.901 Q 383.072 512.098 370.767 512.098 L 370.767 512.098 L 370.767 512.098 Q 361.319 512.098 356.199 508.582 L 356.199 508.582 L 356.199 508.582 Q 351.079 505.067 351.079 498.651 L 351.079 498.651 L 351.079 498.651 Q 351.079 494.256 353.892 491.048 L 353.892 491.048 L 353.892 491.048 Q 356.704 487.84 361.802 486.698 L 361.802 486.698 L 361.802 486.698 Q 359.956 485.863 358.704 484.105 L 358.704 484.105 L 358.704 484.105 Q 357.452 482.347 357.452 480.018 L 357.452 480.018 L 357.452 480.018 Q 357.452 477.381 358.858 475.404 L 358.858 475.404 L 358.858 475.404 Q 360.264 473.426 363.296 471.58 L 363.296 471.58 L 363.296 471.58 Q 359.561 470.042 357.21 466.351 L 357.21 466.351 L 357.21 466.351 Q 354.859 462.66 354.859 457.913 L 354.859 457.913 L 354.859 457.913 Q 354.859 450.003 359.605 445.719 L 359.605 445.719 L 359.605 445.719 Q 364.351 441.434 373.052 441.434 L 373.052 441.434 L 373.052 441.434 Q 376.831 441.434 379.864 442.313 L 379.864 442.313 L 379.864 442.313 Z  M 358.111 498.563 L 358.111 498.563 L 358.111 498.563 Q 358.111 502.474 361.407 504.495 L 361.407 504.495 L 361.407 504.495 Q 364.702 506.517 370.855 506.517 L 370.855 506.517 L 370.855 506.517 Q 380.039 506.517 384.456 503.77 L 384.456 503.77 L 384.456 503.77 Q 388.872 501.024 388.872 496.322 L 388.872 496.322 L 388.872 496.322 Q 388.872 492.411 386.455 490.894 L 386.455 490.894 L 386.455 490.894 Q 384.038 489.378 377.359 489.378 L 377.359 489.378 L 368.614 489.378 L 368.614 489.378 Q 363.648 489.378 360.879 491.751 L 360.879 491.751 L 360.879 491.751 Q 358.111 494.124 358.111 498.563 Z  M 362.066 457.738 L 362.066 457.738 L 362.066 457.738 Q 362.066 462.791 364.922 465.384 L 364.922 465.384 L 364.922 465.384 Q 367.779 467.977 372.876 467.977 L 372.876 467.977 L 372.876 467.977 Q 383.555 467.977 383.555 457.606 L 383.555 457.606 L 383.555 457.606 Q 383.555 446.751 372.744 446.751 L 372.744 446.751 L 372.744 446.751 Q 367.603 446.751 364.834 449.52 L 364.834 449.52 L 364.834 449.52 Q 362.066 452.288 362.066 457.738 Z " fill="rgb(116,116,116)"/><text transform="matrix(1,0,0,1,204.825,331.612)" style="font-family:'Times New Roman';font-weight:400;font-size:300px;font-style:normal;fill:#747474;stroke:none;">i</text><circle vector-effect="non-scaling-stroke" cx="249.99999999999986" cy="226.9191919191919" r="150" fill="none" stroke-width="12" stroke="rgb(116,116,116)" stroke-linejoin="miter" stroke-linecap="square" stroke-miterlimit="3"/></g></svg>