<?xml version="1.0" encoding="UTF-8" standalone="no"?><!-- Generator: Gravit.io --><svg xmlns="http://www.w3.org/2000/svg" xmlns:xlink="http://www.w3.org/1999/xlink" style="isolation:isolate" viewBox="0 0 500 800" width="500pt" height="800pt"><defs><clipPath id="_clipPath_fLTXMgsePv2NZkbJytIwBO8jdLlOBFp6"><rect width="500" height="800"/></clipPath></defs><g clip-path="url(#_clipPath_fLTXMgsePv2NZkbJytIwBO8jdLlOBFp6)"><path d="M 100 25 L 400 25 C 441.394 25 475 58.606 475 100 L 475 700 C 475 741.394 441.394 775 400 775 L 100 775 C 58.606 775 25 741.394 25 700 L 25 100 C 25 58.606 58.606 25 100 25 Z" style="fill:none;stroke:#9F9167;stroke-width:15;stroke-linecap:square;stroke-miterlimit:2;"/><path d=" M 70.157 746.268 L 70.157 746.268 L 70.157 746.268 Q 66.91 746.268 64.893 745.413 L 64.893 745.413 L 64.893 740.799 L 64.893 740.799 Q 67.251 741.483 69.541 741.483 L 69.541 741.483 L 69.541 741.483 Q 72.207 741.483 73.455 740.03 L 73.455 740.03 L 73.455 740.03 Q 74.702 738.577 74.702 735.604 L 74.702 735.604 L 74.702 691.99 L 80.376 691.99 L 80.376 735.193 L 80.376 735.193 Q 80.376 746.268 70.157 746.268 Z  M 74.224 681.839 L 74.224 681.839 L 74.224 681.839 Q 74.224 679.891 75.181 678.985 L 75.181 678.985 L 75.181 678.985 Q 76.138 678.079 77.574 678.079 L 77.574 678.079 L 77.574 678.079 Q 78.941 678.079 79.932 679.002 L 79.932 679.002 L 79.932 679.002 Q 80.923 679.925 80.923 681.839 L 80.923 681.839 L 80.923 681.839 Q 80.923 683.753 79.932 684.693 L 79.932 684.693 L 79.932 684.693 Q 78.941 685.633 77.574 685.633 L 77.574 685.633 L 77.574 685.633 Q 76.138 685.633 75.181 684.693 L 75.181 684.693 L 75.181 684.693 Q 74.224 683.753 74.224 681.839 Z  M 124.742 710.687 L 124.742 710.687 L 124.742 710.687 Q 124.742 719.847 120.127 724.991 L 120.127 724.991 L 120.127 724.991 Q 115.513 730.135 107.378 730.135 L 107.378 730.135 L 107.378 730.135 Q 102.354 730.135 98.457 727.776 L 98.457 727.776 L 98.457 727.776 Q 94.561 725.418 92.442 721.009 L 92.442 721.009 L 92.442 721.009 Q 90.323 716.6 90.323 710.687 L 90.323 710.687 L 90.323 710.687 Q 90.323 701.526 94.903 696.417 L 94.903 696.417 L 94.903 696.417 Q 99.483 691.307 107.618 691.307 L 107.618 691.307 L 107.618 691.307 Q 115.479 691.307 120.11 696.536 L 120.11 696.536 L 120.11 696.536 Q 124.742 701.766 124.742 710.687 Z  M 96.202 710.687 L 96.202 710.687 L 96.202 710.687 Q 96.202 717.864 99.073 721.624 L 99.073 721.624 L 99.073 721.624 Q 101.944 725.384 107.515 725.384 L 107.515 725.384 L 107.515 725.384 Q 113.086 725.384 115.974 721.641 L 115.974 721.641 L 115.974 721.641 Q 118.863 717.899 118.863 710.687 L 118.863 710.687 L 118.863 710.687 Q 118.863 703.543 115.974 699.835 L 115.974 699.835 L 115.974 699.835 Q 113.086 696.126 107.447 696.126 L 107.447 696.126 L 107.447 696.126 Q 101.875 696.126 99.038 699.783 L 99.038 699.783 L 99.038 699.783 Q 96.202 703.441 96.202 710.687 Z  M 140.362 691.99 L 140.362 729.451 L 134.688 729.451 L 134.688 691.99 L 140.362 691.99 L 140.362 691.99 Z  M 134.209 681.839 L 134.209 681.839 L 134.209 681.839 Q 134.209 679.891 135.166 678.985 L 135.166 678.985 L 135.166 678.985 Q 136.123 678.079 137.559 678.079 L 137.559 678.079 L 137.559 678.079 Q 138.926 678.079 139.917 679.002 L 139.917 679.002 L 139.917 679.002 Q 140.909 679.925 140.909 681.839 L 140.909 681.839 L 140.909 681.839 Q 140.909 683.753 139.917 684.693 L 139.917 684.693 L 139.917 684.693 Q 138.926 685.633 137.559 685.633 L 137.559 685.633 L 137.559 685.633 Q 136.123 685.633 135.166 684.693 L 135.166 684.693 L 135.166 684.693 Q 134.209 683.753 134.209 681.839 Z  M 183.702 729.451 L 178.028 729.451 L 178.028 705.218 L 178.028 705.218 Q 178.028 700.638 175.943 698.382 L 175.943 698.382 L 175.943 698.382 Q 173.858 696.126 169.414 696.126 L 169.414 696.126 L 169.414 696.126 Q 163.536 696.126 160.801 699.305 L 160.801 699.305 L 160.801 699.305 Q 158.067 702.483 158.067 709.798 L 158.067 709.798 L 158.067 729.451 L 152.393 729.451 L 152.393 691.99 L 157.007 691.99 L 157.93 697.117 L 158.203 697.117 L 158.203 697.117 Q 159.947 694.349 163.091 692.828 L 163.091 692.828 L 163.091 692.828 Q 166.236 691.307 170.098 691.307 L 170.098 691.307 L 170.098 691.307 Q 176.866 691.307 180.284 694.571 L 180.284 694.571 L 180.284 694.571 Q 183.702 697.835 183.702 705.013 L 183.702 705.013 L 183.702 729.451 L 183.702 729.451 Z  M 203.628 715.677 L 199.219 715.677 L 199.219 713.831 L 199.219 713.831 Q 199.219 709.832 200.45 707.252 L 200.45 707.252 L 200.45 707.252 Q 201.68 704.671 205.03 701.8 L 205.03 701.8 L 205.03 701.8 Q 209.678 697.869 210.891 695.887 L 210.891 695.887 L 210.891 695.887 Q 212.105 693.904 212.105 691.102 L 212.105 691.102 L 212.105 691.102 Q 212.105 687.615 209.866 685.718 L 209.866 685.718 L 209.866 685.718 Q 207.627 683.821 203.423 683.821 L 203.423 683.821 L 203.423 683.821 Q 200.723 683.821 198.16 684.454 L 198.16 684.454 L 198.16 684.454 Q 195.596 685.086 192.281 686.761 L 192.281 686.761 L 190.264 682.147 L 190.264 682.147 Q 196.724 678.763 203.765 678.763 L 203.765 678.763 L 203.765 678.763 Q 210.293 678.763 213.916 681.976 L 213.916 681.976 L 213.916 681.976 Q 217.539 685.189 217.539 691.033 L 217.539 691.033 L 217.539 691.033 Q 217.539 693.528 216.873 695.425 L 216.873 695.425 L 216.873 695.425 Q 216.206 697.322 214.908 699.014 L 214.908 699.014 L 214.908 699.014 Q 213.609 700.706 209.302 704.466 L 209.302 704.466 L 209.302 704.466 Q 205.85 707.405 204.739 709.354 L 204.739 709.354 L 204.739 709.354 Q 203.628 711.302 203.628 714.549 L 203.628 714.549 L 203.628 715.677 L 203.628 715.677 Z  M 197.544 725.828 L 197.544 725.828 L 197.544 725.828 Q 197.544 721.18 201.646 721.18 L 201.646 721.18 L 201.646 721.18 Q 203.628 721.18 204.705 722.376 L 204.705 722.376 L 204.705 722.376 Q 205.782 723.572 205.782 725.828 L 205.782 725.828 L 205.782 725.828 Q 205.782 728.016 204.688 729.229 L 204.688 729.229 L 204.688 729.229 Q 203.594 730.442 201.646 730.442 L 201.646 730.442 L 201.646 730.442 Q 199.869 730.442 198.706 729.366 L 198.706 729.366 L 198.706 729.366 Q 197.544 728.289 197.544 725.828 Z  M 324.248 634.329 L 309.141 596.663 L 315.225 596.663 L 323.428 618.025 L 323.428 618.025 Q 326.128 625.34 326.778 628.587 L 326.778 628.587 L 327.051 628.587 L 327.051 628.587 Q 327.495 626.844 328.914 622.623 L 328.914 622.623 L 328.914 622.623 Q 330.332 618.401 338.194 596.663 L 338.194 596.663 L 344.278 596.663 L 328.179 639.319 L 328.179 639.319 Q 325.786 645.643 322.591 648.292 L 322.591 648.292 L 322.591 648.292 Q 319.395 650.941 314.746 650.941 L 314.746 650.941 L 314.746 650.941 Q 312.149 650.941 309.619 650.359 L 309.619 650.359 L 309.619 645.814 L 309.619 645.814 Q 311.499 646.224 313.824 646.224 L 313.824 646.224 L 313.824 646.224 Q 319.668 646.224 322.163 639.661 L 322.163 639.661 L 324.248 634.329 L 324.248 634.329 Z  M 382.696 615.359 L 382.696 615.359 L 382.696 615.359 Q 382.696 624.52 378.081 629.664 L 378.081 629.664 L 378.081 629.664 Q 373.467 634.808 365.332 634.808 L 365.332 634.808 L 365.332 634.808 Q 360.308 634.808 356.411 632.449 L 356.411 632.449 L 356.411 632.449 Q 352.515 630.091 350.396 625.682 L 350.396 625.682 L 350.396 625.682 Q 348.277 621.273 348.277 615.359 L 348.277 615.359 L 348.277 615.359 Q 348.277 606.199 352.857 601.089 L 352.857 601.089 L 352.857 601.089 Q 357.437 595.98 365.572 595.98 L 365.572 595.98 L 365.572 595.98 Q 373.433 595.98 378.064 601.209 L 378.064 601.209 L 378.064 601.209 Q 382.696 606.439 382.696 615.359 Z  M 354.156 615.359 L 354.156 615.359 L 354.156 615.359 Q 354.156 622.537 357.027 626.297 L 357.027 626.297 L 357.027 626.297 Q 359.898 630.057 365.469 630.057 L 365.469 630.057 L 365.469 630.057 Q 371.04 630.057 373.929 626.314 L 373.929 626.314 L 373.929 626.314 Q 376.817 622.571 376.817 615.359 L 376.817 615.359 L 376.817 615.359 Q 376.817 608.216 373.929 604.507 L 373.929 604.507 L 373.929 604.507 Q 371.04 600.799 365.401 600.799 L 365.401 600.799 L 365.401 600.799 Q 359.829 600.799 356.993 604.456 L 356.993 604.456 L 356.993 604.456 Q 354.156 608.113 354.156 615.359 Z  M 392.232 596.663 L 397.974 596.663 L 397.974 620.965 L 397.974 620.965 Q 397.974 625.545 400.059 627.801 L 400.059 627.801 L 400.059 627.801 Q 402.144 630.057 406.587 630.057 L 406.587 630.057 L 406.587 630.057 Q 412.466 630.057 415.183 626.844 L 415.183 626.844 L 415.183 626.844 Q 417.901 623.631 417.901 616.351 L 417.901 616.351 L 417.901 596.663 L 423.575 596.663 L 423.575 634.124 L 418.892 634.124 L 418.072 629.1 L 417.764 629.1 L 417.764 629.1 Q 416.021 631.868 412.928 633.338 L 412.928 633.338 L 412.928 633.338 Q 409.834 634.808 405.869 634.808 L 405.869 634.808 L 405.869 634.808 Q 399.034 634.808 395.633 631.561 L 395.633 631.561 L 395.633 631.561 Q 392.232 628.314 392.232 621.17 L 392.232 621.17 L 392.232 596.663 L 392.232 596.663 Z  M 98.868 623.904 L 98.868 623.904 L 98.868 623.904 Q 98.868 629.134 94.971 631.971 L 94.971 631.971 L 94.971 631.971 Q 91.075 634.808 84.034 634.808 L 84.034 634.808 L 84.034 634.808 Q 76.582 634.808 72.412 632.449 L 72.412 632.449 L 72.412 627.186 L 72.412 627.186 Q 75.113 628.553 78.206 629.339 L 78.206 629.339 L 78.206 629.339 Q 81.299 630.125 84.17 630.125 L 84.17 630.125 L 84.17 630.125 Q 88.614 630.125 91.006 628.707 L 91.006 628.707 L 91.006 628.707 Q 93.399 627.288 93.399 624.383 L 93.399 624.383 L 93.399 624.383 Q 93.399 622.195 91.502 620.64 L 91.502 620.64 L 91.502 620.64 Q 89.605 619.085 84.102 616.966 L 84.102 616.966 L 84.102 616.966 Q 78.872 615.018 76.668 613.565 L 76.668 613.565 L 76.668 613.565 Q 74.463 612.112 73.387 610.267 L 73.387 610.267 L 73.387 610.267 Q 72.31 608.421 72.31 605.858 L 72.31 605.858 L 72.31 605.858 Q 72.31 601.277 76.036 598.628 L 76.036 598.628 L 76.036 598.628 Q 79.761 595.98 86.255 595.98 L 86.255 595.98 L 86.255 595.98 Q 92.305 595.98 98.081 598.441 L 98.081 598.441 L 96.065 603.055 L 96.065 603.055 Q 90.425 600.731 85.845 600.731 L 85.845 600.731 L 85.845 600.731 Q 81.812 600.731 79.761 601.995 L 79.761 601.995 L 79.761 601.995 Q 77.71 603.26 77.71 605.482 L 77.71 605.482 L 77.71 605.482 Q 77.71 606.985 78.479 608.045 L 78.479 608.045 L 78.479 608.045 Q 79.248 609.105 80.957 610.062 L 80.957 610.062 L 80.957 610.062 Q 82.666 611.019 87.52 612.83 L 87.52 612.83 L 87.52 612.83 Q 94.185 615.257 96.526 617.718 L 96.526 617.718 L 96.526 617.718 Q 98.868 620.179 98.868 623.904 Z  M 139.405 634.124 L 133.731 634.124 L 133.731 609.891 L 133.731 609.891 Q 133.731 605.311 131.646 603.055 L 131.646 603.055 L 131.646 603.055 Q 129.561 600.799 125.118 600.799 L 125.118 600.799 L 125.118 600.799 Q 119.204 600.799 116.487 604.012 L 116.487 604.012 L 116.487 604.012 Q 113.77 607.225 113.77 614.539 L 113.77 614.539 L 113.77 634.124 L 108.096 634.124 L 108.096 580.941 L 113.77 580.941 L 113.77 597.039 L 113.77 597.039 Q 113.77 599.944 113.496 601.858 L 113.496 601.858 L 113.838 601.858 L 113.838 601.858 Q 115.513 599.158 118.606 597.603 L 118.606 597.603 L 118.606 597.603 Q 121.7 596.048 125.664 596.048 L 125.664 596.048 L 125.664 596.048 Q 132.535 596.048 135.97 599.312 L 135.97 599.312 L 135.97 599.312 Q 139.405 602.576 139.405 609.686 L 139.405 609.686 L 139.405 634.124 L 139.405 634.124 Z  M 183.394 615.359 L 183.394 615.359 L 183.394 615.359 Q 183.394 624.52 178.78 629.664 L 178.78 629.664 L 178.78 629.664 Q 174.165 634.808 166.031 634.808 L 166.031 634.808 L 166.031 634.808 Q 161.006 634.808 157.11 632.449 L 157.11 632.449 L 157.11 632.449 Q 153.213 630.091 151.094 625.682 L 151.094 625.682 L 151.094 625.682 Q 148.975 621.273 148.975 615.359 L 148.975 615.359 L 148.975 615.359 Q 148.975 606.199 153.555 601.089 L 153.555 601.089 L 153.555 601.089 Q 158.135 595.98 166.27 595.98 L 166.27 595.98 L 166.27 595.98 Q 174.131 595.98 178.763 601.209 L 178.763 601.209 L 178.763 601.209 Q 183.394 606.439 183.394 615.359 Z  M 154.854 615.359 L 154.854 615.359 L 154.854 615.359 Q 154.854 622.537 157.725 626.297 L 157.725 626.297 L 157.725 626.297 Q 160.596 630.057 166.167 630.057 L 166.167 630.057 L 166.167 630.057 Q 171.739 630.057 174.627 626.314 L 174.627 626.314 L 174.627 626.314 Q 177.515 622.571 177.515 615.359 L 177.515 615.359 L 177.515 615.359 Q 177.515 608.216 174.627 604.507 L 174.627 604.507 L 174.627 604.507 Q 171.739 600.799 166.099 600.799 L 166.099 600.799 L 166.099 600.799 Q 160.528 600.799 157.691 604.456 L 157.691 604.456 L 157.691 604.456 Q 154.854 608.113 154.854 615.359 Z  M 192.93 596.663 L 198.672 596.663 L 198.672 620.965 L 198.672 620.965 Q 198.672 625.545 200.757 627.801 L 200.757 627.801 L 200.757 627.801 Q 202.842 630.057 207.286 630.057 L 207.286 630.057 L 207.286 630.057 Q 213.164 630.057 215.882 626.844 L 215.882 626.844 L 215.882 626.844 Q 218.599 623.631 218.599 616.351 L 218.599 616.351 L 218.599 596.663 L 224.273 596.663 L 224.273 634.124 L 219.59 634.124 L 218.77 629.1 L 218.462 629.1 L 218.462 629.1 Q 216.719 631.868 213.626 633.338 L 213.626 633.338 L 213.626 633.338 Q 210.533 634.808 206.568 634.808 L 206.568 634.808 L 206.568 634.808 Q 199.732 634.808 196.331 631.561 L 196.331 631.561 L 196.331 631.561 Q 192.93 628.314 192.93 621.17 L 192.93 621.17 L 192.93 596.663 L 192.93 596.663 Z  M 241.978 580.941 L 241.978 634.124 L 236.304 634.124 L 236.304 580.941 L 241.978 580.941 L 241.978 580.941 Z  M 280.259 634.124 L 279.507 629.1 L 279.2 629.1 L 279.2 629.1 Q 275.269 634.808 267.442 634.808 L 267.442 634.808 L 267.442 634.808 Q 260.093 634.808 256.009 629.783 L 256.009 629.783 L 256.009 629.783 Q 251.924 624.759 251.924 615.496 L 251.924 615.496 L 251.924 615.496 Q 251.924 606.233 256.026 601.107 L 256.026 601.107 L 256.026 601.107 Q 260.127 595.98 267.442 595.98 L 267.442 595.98 L 267.442 595.98 Q 275.064 595.98 279.131 601.517 L 279.131 601.517 L 279.576 601.517 L 279.336 598.816 L 279.2 596.185 L 279.2 580.941 L 284.873 580.941 L 284.873 634.124 L 280.259 634.124 L 280.259 634.124 Z  M 268.16 630.057 L 268.16 630.057 L 268.16 630.057 Q 273.97 630.057 276.585 626.895 L 276.585 626.895 L 276.585 626.895 Q 279.2 623.733 279.2 616.692 L 279.2 616.692 L 279.2 615.496 L 279.2 615.496 Q 279.2 607.532 276.551 604.131 L 276.551 604.131 L 276.551 604.131 Q 273.902 600.731 268.091 600.731 L 268.091 600.731 L 268.091 600.731 Q 263.101 600.731 260.452 604.61 L 260.452 604.61 L 260.452 604.61 Q 257.803 608.489 257.803 615.565 L 257.803 615.565 L 257.803 615.565 Q 257.803 622.742 260.435 626.399 L 260.435 626.399 L 260.435 626.399 Q 263.067 630.057 268.16 630.057 Z  M 132.535 488.826 L 119.17 538.797 L 113.428 538.797 L 103.345 505.335 L 103.345 505.335 Q 102.627 503.113 101.739 499.73 L 101.739 499.73 L 101.739 499.73 Q 100.85 496.346 100.816 495.662 L 100.816 495.662 L 100.816 495.662 Q 100.064 500.174 98.423 505.54 L 98.423 505.54 L 88.648 538.797 L 82.906 538.797 L 69.61 488.826 L 75.762 488.826 L 83.658 519.691 L 83.658 519.691 Q 85.298 526.185 86.05 531.448 L 86.05 531.448 L 86.05 531.448 Q 86.973 525.193 88.785 519.212 L 88.785 519.212 L 97.74 488.826 L 103.892 488.826 L 113.291 519.485 L 113.291 519.485 Q 114.932 524.783 116.06 531.448 L 116.06 531.448 L 116.06 531.448 Q 116.709 526.595 118.521 519.622 L 118.521 519.622 L 126.382 488.826 L 132.535 488.826 L 132.535 488.826 Z  M 170.816 538.797 L 165.142 538.797 L 165.142 514.564 L 165.142 514.564 Q 165.142 509.983 163.057 507.728 L 163.057 507.728 L 163.057 507.728 Q 160.972 505.472 156.529 505.472 L 156.529 505.472 L 156.529 505.472 Q 150.616 505.472 147.898 508.685 L 147.898 508.685 L 147.898 508.685 Q 145.181 511.898 145.181 519.212 L 145.181 519.212 L 145.181 538.797 L 139.507 538.797 L 139.507 485.613 L 145.181 485.613 L 145.181 501.712 L 145.181 501.712 Q 145.181 504.617 144.908 506.531 L 144.908 506.531 L 145.249 506.531 L 145.249 506.531 Q 146.924 503.831 150.017 502.276 L 150.017 502.276 L 150.017 502.276 Q 153.111 500.721 157.076 500.721 L 157.076 500.721 L 157.076 500.721 Q 163.946 500.721 167.381 503.985 L 167.381 503.985 L 167.381 503.985 Q 170.816 507.249 170.816 514.358 L 170.816 514.358 L 170.816 538.797 L 170.816 538.797 Z  M 191.631 539.002 L 176.524 501.336 L 182.608 501.336 L 190.811 522.698 L 190.811 522.698 Q 193.511 530.013 194.161 533.26 L 194.161 533.26 L 194.434 533.26 L 194.434 533.26 Q 194.878 531.517 196.297 527.295 L 196.297 527.295 L 196.297 527.295 Q 197.715 523.074 205.577 501.336 L 205.577 501.336 L 211.661 501.336 L 195.562 543.992 L 195.562 543.992 Q 193.169 550.316 189.973 552.964 L 189.973 552.964 L 189.973 552.964 Q 186.778 555.613 182.129 555.613 L 182.129 555.613 L 182.129 555.613 Q 179.532 555.613 177.002 555.032 L 177.002 555.032 L 177.002 550.486 L 177.002 550.486 Q 178.882 550.897 181.206 550.897 L 181.206 550.897 L 181.206 550.897 Q 187.051 550.897 189.546 544.334 L 189.546 544.334 L 191.631 539.002 L 191.631 539.002 Z " fill="rgb(159,145,103)"/><path d=" M 254.19 255.791 L 215.372 255.791 L 215.372 244.951 L 215.372 244.951 Q 215.372 230.889 221.378 220.488 L 221.378 220.488 L 221.378 220.488 Q 227.384 210.088 243.351 198.369 L 243.351 198.369 L 243.351 198.369 Q 258.731 187.383 263.639 180.498 L 263.639 180.498 L 263.639 180.498 Q 268.546 173.613 268.546 165.117 L 268.546 165.117 L 268.546 165.117 Q 268.546 155.596 261.515 150.615 L 261.515 150.615 L 261.515 150.615 Q 254.483 145.635 241.886 145.635 L 241.886 145.635 L 241.886 145.635 Q 219.913 145.635 191.788 159.99 L 191.788 159.99 L 175.821 127.91 L 175.821 127.91 Q 208.487 109.6 245.108 109.6 L 245.108 109.6 L 245.108 109.6 Q 275.284 109.6 293.082 124.102 L 293.082 124.102 L 293.082 124.102 Q 310.88 138.604 310.88 162.773 L 310.88 162.773 L 310.88 162.773 Q 310.88 178.887 303.556 190.605 L 303.556 190.605 L 303.556 190.605 Q 296.231 202.324 275.724 216.973 L 275.724 216.973 L 275.724 216.973 Q 261.661 227.373 257.926 232.793 L 257.926 232.793 L 257.926 232.793 Q 254.19 238.213 254.19 247.002 L 254.19 247.002 L 254.19 255.791 L 254.19 255.791 Z  M 210.685 305.889 L 210.685 305.889 L 210.685 305.889 Q 210.685 293.584 217.276 287.285 L 217.276 287.285 L 217.276 287.285 Q 223.868 280.986 236.466 280.986 L 236.466 280.986 L 236.466 280.986 Q 248.624 280.986 255.289 287.432 L 255.289 287.432 L 255.289 287.432 Q 261.954 293.877 261.954 305.889 L 261.954 305.889 L 261.954 305.889 Q 261.954 317.461 255.216 324.126 L 255.216 324.126 L 255.216 324.126 Q 248.478 330.791 236.466 330.791 L 236.466 330.791 L 236.466 330.791 Q 224.161 330.791 217.423 324.272 L 217.423 324.272 L 217.423 324.272 Q 210.685 317.754 210.685 305.889 Z " fill="rgb(159,145,103)"/></g></svg>